<svg width="14" height="16" viewBox="0 0 14 16" fill="none" xmlns="http://www.w3.org/2000/svg">
<path d="M5.8667 14.0002C5.97829 14.2031 6.14233 14.3724 6.34169 14.4903C6.54106 14.6082 6.76842 14.6704 7.00003 14.6704C7.23165 14.6704 7.45901 14.6082 7.65837 14.4903C7.85773 14.3724 8.02178 14.2031 8.13337 14.0002M3 5.3335C3 4.27263 3.42143 3.25521 4.17157 2.50507C4.92172 1.75492 5.93913 1.3335 7 1.3335C8.06087 1.3335 9.07828 1.75492 9.82843 2.50507C10.5786 3.25521 11 4.27263 11 5.3335C11 10.0002 13 11.3335 13 11.3335H1C1 11.3335 3 10.0002 3 5.3335Z" stroke="#09090B" stroke-width="2" stroke-linecap="round" stroke-linejoin="round"/>
</svg>
