<svg width="16" height="15" viewBox="0 0 16 15" fill="none" xmlns="http://www.w3.org/2000/svg">
<path d="M6.66634 12.3334H2.66634C2.31272 12.3334 1.97358 12.1929 1.72353 11.9429C1.47348 11.6928 1.33301 11.3537 1.33301 11.0001V2.3334C1.33301 1.97978 1.47348 1.64064 1.72353 1.39059C1.97358 1.14054 2.31272 1.00006 2.66634 1.00006H5.26634C5.48933 0.997878 5.70931 1.05166 5.90614 1.15648C6.10297 1.2613 6.27037 1.41381 6.39301 1.60006L6.93301 2.40006C7.05441 2.58442 7.21969 2.73574 7.41401 2.84047C7.60833 2.94519 7.8256 3.00003 8.04634 3.00006H13.333C13.6866 3.00006 14.0258 3.14054 14.2758 3.39059C14.5259 3.64064 14.6663 3.97978 14.6663 4.3334V6.00006M13.333 10.3333V9C13.333 8.64638 13.1925 8.30724 12.9425 8.05719C12.6924 7.80714 12.3533 7.66667 11.9997 7.66667C11.6461 7.66667 11.3069 7.80714 11.0569 8.05719C10.8068 8.30724 10.6663 8.64638 10.6663 9V10.3333M9.99967 10.3333H13.9997C14.3679 10.3333 14.6663 10.6318 14.6663 11V13C14.6663 13.3682 14.3679 13.6667 13.9997 13.6667H9.99967C9.63148 13.6667 9.33301 13.3682 9.33301 13V11C9.33301 10.6318 9.63148 10.3333 9.99967 10.3333Z" stroke="#09090B" stroke-width="2" stroke-linecap="round" stroke-linejoin="round"/>
</svg>
