<svg width="16" height="16" viewBox="0 0 16 16" fill="none" xmlns="http://www.w3.org/2000/svg">
<path d="M10.333 5.00016L11.8663 6.5335C11.991 6.65565 12.1585 6.72407 12.333 6.72407C12.5075 6.72407 12.6751 6.65565 12.7997 6.5335L14.1997 5.1335C14.3218 5.00888 14.3902 4.84133 14.3902 4.66683C14.3902 4.49233 14.3218 4.32478 14.1997 4.20016L12.6663 2.66683M13.9996 1.3335L7.59961 7.7335M8.66634 10.3335C8.66634 12.3585 7.02472 14.0002 4.99967 14.0002C2.97463 14.0002 1.33301 12.3585 1.33301 10.3335C1.33301 8.30845 2.97463 6.66683 4.99967 6.66683C7.02472 6.66683 8.66634 8.30845 8.66634 10.3335Z" stroke="#09090B" stroke-width="2" stroke-linecap="round" stroke-linejoin="round"/>
</svg>
