<svg width="16" height="14" viewBox="0 0 16 14" fill="none" xmlns="http://www.w3.org/2000/svg">
<path d="M14.6663 7.6665V2.99984C14.6663 2.64622 14.5259 2.30708 14.2758 2.05703C14.0258 1.80698 13.6866 1.6665 13.333 1.6665H2.66634C2.31272 1.6665 1.97358 1.80698 1.72353 2.05703C1.47348 2.30708 1.33301 2.64622 1.33301 2.99984V10.9998C1.33301 11.7332 1.93301 12.3332 2.66634 12.3332H7.99967M14.6663 3.6665L8.68634 7.4665C8.48052 7.59545 8.24255 7.66384 7.99967 7.66384C7.7568 7.66384 7.51883 7.59545 7.31301 7.4665L1.33301 3.6665M10.6663 11.6665L11.9997 12.9998L14.6663 10.3332" stroke="#09090B" stroke-width="2" stroke-linecap="round" stroke-linejoin="round"/>
</svg>
