<svg width="22" height="19" viewBox="0 0 22 19" fill="none" xmlns="http://www.w3.org/2000/svg">
<path d="M11.0637 6.57899L14.0699 9.58512L14.0842 9.42766C14.0842 7.84823 12.8006 6.56467 11.2212 6.56467L11.0637 6.57899Z" fill="black"/>
<path d="M11.2213 4.65605C13.8552 4.65605 15.9929 6.79376 15.9929 9.42771C15.9929 10.0433 15.8689 10.6302 15.6542 11.1693L18.4456 13.9608C19.8866 12.7583 21.0223 11.2028 21.7237 9.42771C20.068 5.23822 15.9977 2.27024 11.2213 2.27024C9.88525 2.27024 8.60647 2.50881 7.41833 2.93826L9.47969 4.99482C10.0188 4.78489 10.6057 4.65605 11.2213 4.65605Z" fill="black"/>
<path d="M1.67795 2.05549L3.85382 4.23136L4.28805 4.66559C2.71341 5.89667 1.46801 7.53336 0.723633 9.42768C2.37464 13.6172 6.4496 16.5851 11.2213 16.5851C12.7005 16.5851 14.1129 16.2988 15.406 15.7787L15.8116 16.1843L18.5935 18.9709L19.8103 17.759L2.89472 0.838718L1.67795 2.05549ZM6.95541 7.32817L8.42985 8.80261C8.3869 9.0078 8.35827 9.21295 8.35827 9.42768C8.35827 11.0071 9.64183 12.2907 11.2213 12.2907C11.436 12.2907 11.6412 12.262 11.8416 12.2191L13.316 13.6935C12.6814 14.0085 11.9752 14.1993 11.2213 14.1993C8.58731 14.1993 6.4496 12.0616 6.4496 9.42768C6.4496 8.67377 6.64048 7.96755 6.95541 7.32817Z" fill="black"/>
</svg>
