<svg width="104" height="29" viewBox="0 0 104 29" fill="none" xmlns="http://www.w3.org/2000/svg">
<g clip-path="url(#clip0_1007_10570)">
<path d="M17.7754 0.755859H4.32031C1.92871 0.755859 0 2.68457 0 5.07617V22.5312C0 24.9229 1.92871 26.8516 4.32031 26.8516H17.7754C20.167 26.8516 22.0957 24.9229 22.0957 22.5312V5.07617C22.0957 2.68457 20.167 0.755859 17.7754 0.755859Z" fill="url(#paint0_linear_1007_10570)"/>
<path d="M4.32031 2.51172H17.7754C19.2246 2.51172 20.3398 3.62695 20.3398 5.07617V22.5312C20.3398 23.9805 19.2246 25.0957 17.7754 25.0957H4.32031C2.87109 25.0957 1.75586 23.9805 1.75586 22.5312V5.07617C1.75586 3.62695 2.87109 2.51172 4.32031 2.51172Z" fill="white"/>
<path d="M11.0469 17.8984C12.8516 17.8984 14.2715 16.3418 14.2715 14.332C14.2715 13.6777 14.0625 13.0762 13.7207 12.5781L17.6016 6.98047C17.7812 6.68359 17.6895 6.29883 17.3926 6.11914C17.0957 5.93945 16.7109 6.03125 16.5312 6.32812L12.6504 11.9258C12.1523 11.584 11.5508 11.375 10.8965 11.375C9.0918 11.375 7.67188 12.9316 7.67188 14.9414C7.67188 16.9512 9.0918 18.5078 10.8965 18.5078L11.0469 17.8984ZM10.8965 16.7832C9.95508 16.7832 9.19727 15.8906 9.19727 14.8008C9.19727 13.7109 9.95508 12.8184 10.8965 12.8184C11.8379 12.8184 12.5957 13.7109 12.5957 14.8008C12.5957 15.8906 11.8379 16.7832 10.8965 16.7832Z" fill="url(#paint1_linear_1007_10570)"/>
</g>
<path d="M35.3379 19.1133C34.7744 19.1133 34.3096 18.6953 34.3096 18.1602C34.3096 17.625 34.7744 17.207 35.3379 17.207C35.9014 17.207 36.3662 17.625 36.3662 18.1602C36.3662 18.6953 35.9014 19.1133 35.3379 19.1133Z" fill="#020202"/>
<path d="M49.127 11.8926C49.127 10.168 47.8477 8.76172 46.1797 8.76172C44.5117 8.76172 43.2324 10.168 43.2324 11.8926V16.3711C43.2324 17.1602 43.8574 17.8027 44.625 17.8027C45.3926 17.8027 46.0176 17.1602 46.0176 16.3711V11.8926C46.0176 11.6953 46.1797 11.5273 46.3711 11.5273C46.5625 11.5273 46.7246 11.6953 46.7246 11.8926V16.3711C46.7246 17.1602 47.3496 17.8027 48.1172 17.8027C48.8848 17.8027 49.5098 17.1602 49.5098 16.3711V11.8926H49.127Z" fill="#020202"/>
<path d="M55.373 8.76172C53.7051 8.76172 52.4258 10.168 52.4258 11.8926V16.3711C52.4258 18.0957 53.7051 19.502 55.373 19.502C57.041 19.502 58.3203 18.0957 58.3203 16.3711V11.8926C58.3203 10.168 57.041 8.76172 55.373 8.76172ZM55.6289 16.3711C55.6289 16.5625 55.4668 16.7305 55.2754 16.7305C55.084 16.7305 54.9219 16.5625 54.9219 16.3711V11.8926C54.9219 11.7012 55.084 11.5332 55.2754 11.5332C55.4668 11.5332 55.6289 11.7012 55.6289 11.8926V16.3711H55.6289Z" fill="#020202"/>
<path d="M43.4316 22.791C43.6836 22.791 43.8926 23 43.8926 23.252C43.8926 23.5039 43.6836 23.7129 43.4316 23.7129H35.3379C35.0859 23.7129 34.877 23.5039 34.877 23.252C34.877 23 35.0859 22.791 35.3379 22.791H43.4316Z" fill="#020202"/>
<path d="M66.8418 10.9023C67.1289 10.6152 67.7012 10.6152 67.9883 10.9023L71.127 14.041C71.4141 14.3281 71.4141 14.9004 71.127 15.1875L67.9883 18.3262C67.7012 18.6133 67.1289 18.6133 66.8418 18.3262C66.5547 18.0391 66.5547 17.4668 66.8418 17.1797L69.459 14.5625L66.8418 11.9453C66.5547 11.6582 66.5547 11.0859 66.8418 10.7988V10.9023Z" fill="#020202"/>
<path d="M62.3047 21.248C61.7734 21.248 61.3438 20.8184 61.3438 20.2871V8.81445C61.3438 8.2832 61.7734 7.85352 62.3047 7.85352C62.8359 7.85352 63.2656 8.28332 63.2656 8.81445V20.2871C63.2656 20.8184 62.8359 21.248 62.3047 21.248Z" fill="#020202"/>
<path d="M75.2578 17.0391C75.7422 17.0391 76.1328 16.6484 76.1328 16.1641C76.1328 15.6797 75.7422 15.2891 75.2578 15.2891H75.1094C74.625 15.2891 74.2344 15.6797 74.2344 16.1641C74.2344 16.6484 74.625 17.0391 75.1094 17.0391H75.2578Z" fill="#020202"/>
<path d="M90.8926 11.9355C92.6172 11.9355 94.0234 10.5293 94.0234 8.80469C94.0234 7.08008 92.6172 5.67383 90.8926 5.67383C89.168 5.67383 87.7617 7.08008 87.7617 8.80469C87.7617 10.5293 89.168 11.9355 90.8926 11.9355ZM90.8926 7.59375C91.5586 7.59375 92.1035 8.13867 92.1035 8.80469C92.1035 9.4707 91.5586 10.0156 90.8926 10.0156C90.2266 10.0156 89.6816 9.4707 89.6816 8.80469C89.6816 8.13867 90.2266 7.59375 90.8926 7.59375Z" fill="#020202"/>
<path d="M101.516 11.9355C103.24 11.9355 104.647 10.5293 104.647 8.80469C104.647 7.08008 103.24 5.67383 101.516 5.67383C99.791 5.67383 98.3848 7.08008 98.3848 8.80469C98.3848 10.5293 99.791 11.9355 101.516 11.9355ZM101.516 7.59375C102.182 7.59375 102.727 8.13867 102.727 8.80469C102.727 9.4707 102.182 10.0156 101.516 10.0156C100.85 10.0156 100.305 9.4707 100.305 8.80469C100.305 8.13867 100.85 7.59375 101.516 7.59375Z" fill="#020202"/>
<path d="M80.7715 11.9355C82.4961 11.9355 83.9023 10.5293 83.9023 8.80469C83.9023 7.08008 82.4961 5.67383 80.7715 5.67383C79.0469 5.67383 77.6406 7.08008 77.6406 8.80469C77.6406 10.5293 79.0469 11.9355 80.7715 11.9355ZM80.7715 7.59375C81.4375 7.59375 81.9824 8.13867 81.9824 8.80469C81.9824 9.4707 81.4375 10.0156 80.7715 10.0156C80.1055 10.0156 79.5605 9.4707 79.5605 8.80469C79.5605 8.13867 80.1055 7.59375 80.7715 7.59375Z" fill="#020202"/>
<path d="M90.8926 23.2578C92.6172 23.2578 94.0234 21.8516 94.0234 20.127C94.0234 18.4023 92.6172 16.9961 90.8926 16.9961C89.168 16.9961 87.7617 18.4023 87.7617 20.127C87.7617 21.8516 89.168 23.2578 90.8926 23.2578ZM90.8926 18.916C91.5586 18.916 92.1035 19.4609 92.1035 20.127C92.1035 20.793 91.5586 21.3379 90.8926 21.3379C90.2266 21.3379 89.6816 20.793 89.6816 20.127C89.6816 19.4609 90.2266 18.916 90.8926 18.916Z" fill="#020202"/>
<path d="M101.516 23.2578C103.24 23.2578 104.647 21.8516 104.647 20.127C104.647 18.4023 103.24 16.9961 101.516 16.9961C99.791 16.9961 98.3848 18.4023 98.3848 20.127C98.3848 21.8516 99.791 23.2578 101.516 23.2578ZM101.516 18.916C102.182 18.916 102.727 19.4609 102.727 20.127C102.727 20.793 102.182 21.3379 101.516 21.3379C100.85 21.3379 100.305 20.793 100.305 20.127C100.305 19.4609 100.85 18.916 101.516 18.916Z" fill="#020202"/>
<path d="M80.7715 23.2578C82.4961 23.2578 83.9023 21.8516 83.9023 20.127C83.9023 18.4023 82.4961 16.9961 80.7715 16.9961C79.0469 16.9961 77.6406 18.4023 77.6406 20.127C77.6406 21.8516 79.0469 23.2578 80.7715 23.2578ZM80.7715 18.916C81.4375 18.916 81.9824 19.4609 81.9824 20.127C81.9824 20.793 81.4375 21.3379 80.7715 21.3379C80.1055 21.3379 79.5605 20.793 79.5605 20.127C79.5605 19.4609 80.1055 18.916 80.7715 18.916Z" fill="#020202"/>
<defs>
<linearGradient id="paint0_linear_1007_10570" x1="11.0479" y1="0.755859" x2="11.0479" y2="26.8516" gradientUnits="userSpaceOnUse">
<stop stop-color="#667EEA"/>
<stop offset="1" stop-color="#764BA2"/>
</linearGradient>
<linearGradient id="paint1_linear_1007_10570" x1="12.6367" y1="6.03125" x2="12.6367" y2="18.5078" gradientUnits="userSpaceOnUse">
<stop stop-color="#667EEA"/>
<stop offset="1" stop-color="#764BA2"/>
</linearGradient>
<clipPath id="clip0_1007_10570">
<rect width="22.0957" height="26.0957" fill="white" transform="translate(0 0.755859)"/>
</clipPath>
</defs>
</svg>
